<svg xmlns="http://www.w3.org/2000/svg" version="1.1" xmlns:xlink="http://www.w3.org/1999/xlink" xmlns:svgjs="http://svgjs.dev/svgjs" width="1500" height="583" viewBox="0 0 1500 583"><g transform="matrix(1,0,0,1,-0.9090909090909918,-0.7513465481886215)"><svg viewBox="0 0 396 154" data-background-color="#3a3836" preserveAspectRatio="xMidYMid meet" height="583" width="1500" xmlns="http://www.w3.org/2000/svg" xmlns:xlink="http://www.w3.org/1999/xlink"><g id="tight-bounds" transform="matrix(1,0,0,1,0.2400000000000091,0.19846889952152935)"><svg viewBox="0 0 395.52 153.60306220095694" height="153.60306220095694" width="395.52"><g><svg viewBox="0 0 395.52 153.60306220095694" height="153.60306220095694" width="395.52"><g><svg viewBox="0 0 395.52 153.60306220095694" height="153.60306220095694" width="395.52"><g id="textblocktransform"><svg viewBox="0 0 395.52 153.60306220095694" height="153.60306220095694" width="395.52" id="textblock"><g><svg viewBox="0 0 395.52 153.60306220095694" height="153.60306220095694" width="395.52"><g transform="matrix(1,0,0,1,0,0)"><svg width="395.52" viewBox="4 -37.05 125.38999999999999 48.699999999999996" height="153.60306220095694" data-palette-color="#00ddb3"><path d="M8.75 0.5L8.75 0.5Q6.5 0.5 5.25-0.98 4-2.45 4-5.05L4-5.05 4-34.3Q4-35.35 4.65-35.93 5.3-36.5 6.35-36.5L6.35-36.5Q7.2-36.5 7.78-36.18 8.35-35.85 8.65-35.6L8.65-35.6Q8.2-34.2 8.1-31.95 8-29.7 8-25.85L8-25.85 8-5.25Q8-4 8.47-3.3 8.95-2.6 9.9-2.6L9.9-2.6Q10.45-2.6 10.98-2.85 11.5-3.1 11.75-3.65L11.75-3.65Q12.05-3.25 12.18-2.83 12.3-2.4 12.3-2.1L12.3-2.1Q12.3-0.95 11.23-0.23 10.15 0.5 8.75 0.5ZM27.15 0.65L27.15 0.65Q21.75 0.65 18.72-2.88 15.7-6.4 15.7-12.7L15.7-12.7Q15.7-19 18.72-22.53 21.75-26.05 27.15-26.05L27.15-26.05Q32.6-26.05 35.62-22.53 38.65-19 38.65-12.7L38.65-12.7Q38.65-6.4 35.62-2.88 32.6 0.65 27.15 0.65ZM27.15-1.15L27.15-1.15Q30.65-1.15 32.5-4.15 34.35-7.15 34.35-12.7L34.35-12.7Q34.35-18.25 32.5-21.23 30.65-24.2 27.15-24.2L27.15-24.2Q23.7-24.2 21.82-21.23 19.95-18.25 19.95-12.7L19.95-12.7Q19.95-7.15 21.82-4.15 23.7-1.15 27.15-1.15ZM50.65 0.55L50.65 0.55Q48.25 0.55 46.92-0.93 45.6-2.4 45.6-5L45.6-5 45.6-29.8Q45.6-30.85 46.25-31.43 46.9-32 47.95-32L47.95-32Q48.85-32 49.4-31.68 49.95-31.35 50.25-31.1L50.25-31.1Q49.8-29.7 49.7-27.45 49.6-25.2 49.6-21.35L49.6-21.35 49.6-5.25Q49.6-4 50.2-3.28 50.8-2.55 52-2.55L52-2.55Q52.7-2.55 53.4-2.8 54.1-3.05 54.35-3.6L54.35-3.6Q54.65-3.2 54.77-2.78 54.9-2.35 54.9-2L54.9-2Q54.9-0.9 53.7-0.18 52.5 0.55 50.65 0.55ZM41.9-23.1L41.9-23.1 41.95-24.25Q42-24.8 42.32-25.08 42.65-25.35 43.05-25.35L43.05-25.35 51.65-25.35Q51.85-25.35 52.45-25.38 53.05-25.4 53.77-25.43 54.5-25.45 55.1-25.48 55.7-25.5 55.9-25.5L55.9-25.5 55.85-24.4Q55.8-23.85 55.5-23.55 55.2-23.25 54.75-23.25L54.75-23.25 44.9-23.25Q44.4-23.25 43.4-23.23 42.4-23.2 41.9-23.1ZM67.59 0.55L67.59 0.55Q65.19 0.55 63.87-0.93 62.54-2.4 62.54-5L62.54-5 62.54-29.8Q62.54-30.85 63.19-31.43 63.84-32 64.89-32L64.89-32Q65.79-32 66.34-31.68 66.89-31.35 67.19-31.1L67.19-31.1Q66.74-29.7 66.64-27.45 66.54-25.2 66.54-21.35L66.54-21.35 66.54-5.25Q66.54-4 67.14-3.28 67.74-2.55 68.94-2.55L68.94-2.55Q69.64-2.55 70.34-2.8 71.04-3.05 71.29-3.6L71.29-3.6Q71.59-3.2 71.72-2.78 71.84-2.35 71.84-2L71.84-2Q71.84-0.9 70.64-0.18 69.44 0.55 67.59 0.55ZM58.84-23.1L58.84-23.1 58.89-24.25Q58.94-24.8 59.27-25.08 59.59-25.35 59.99-25.35L59.99-25.35 68.59-25.35Q68.79-25.35 69.39-25.38 69.99-25.4 70.72-25.43 71.44-25.45 72.04-25.48 72.64-25.5 72.84-25.5L72.84-25.5 72.79-24.4Q72.74-23.85 72.44-23.55 72.14-23.25 71.69-23.25L71.69-23.25 61.84-23.25Q61.34-23.25 60.34-23.23 59.34-23.2 58.84-23.1ZM81.09-30.15L81.09-30.15Q79.99-30.15 79.19-30.95 78.39-31.75 78.39-32.85L78.39-32.85Q78.39-34 79.19-34.77 79.99-35.55 81.09-35.55L81.09-35.55Q82.24-35.55 83.02-34.77 83.79-34 83.79-32.85L83.79-32.85Q83.79-31.75 83.02-30.95 82.24-30.15 81.09-30.15ZM83.24-23.85L83.29-5.7Q83.29-4.25 83.42-2.85 83.54-1.45 83.94-0.35L83.94-0.35Q83.64-0.1 83.07 0.23 82.49 0.55 81.64 0.55L81.64 0.55Q80.69 0.55 80.04-0.05 79.39-0.65 79.39-1.65L79.39-1.65 79.34-19.8Q79.34-21.25 79.22-22.65 79.09-24.05 78.69-25.15L78.69-25.15Q78.99-25.4 79.57-25.73 80.14-26.05 80.99-26.05L80.99-26.05Q81.99-26.05 82.62-25.48 83.24-24.9 83.24-23.85L83.24-23.85ZM95.04 0.55L95.04 0.55Q94.04 0.55 93.39-0.05 92.74-0.65 92.74-1.65L92.74-1.65 92.69-27.8Q92.69-29.5 93.06-31.15 93.44-32.8 94.34-34.13 95.24-35.45 96.89-36.25 98.54-37.05 101.04-37.05L101.04-37.05Q104.04-37.05 105.86-35.95 107.69-34.85 107.69-32.8L107.69-32.8Q107.69-31.25 106.74-30.4 105.79-29.55 104.79-29.55L104.79-29.55Q104.29-29.55 103.86-29.68 103.44-29.8 103.19-30.05L103.19-30.05Q103.79-30.8 103.96-31.48 104.14-32.15 104.14-32.7L104.14-32.7Q104.14-34.15 103.26-34.75 102.39-35.35 100.94-35.35L100.94-35.35Q98.99-35.35 98.09-34.18 97.19-33 96.94-31.13 96.69-29.25 96.69-27.15L96.69-27.15 96.69-5.7Q96.69-4.4 96.81-2.93 96.94-1.45 97.29-0.35L97.29-0.35Q96.94 0 96.36 0.28 95.79 0.55 95.04 0.55ZM88.94-23.1L88.94-23.1 88.99-24.25Q89.04-24.8 89.36-25.08 89.69-25.35 90.14-25.35L90.14-25.35 99.79-25.35Q99.99-25.35 100.56-25.38 101.14-25.4 101.84-25.43 102.54-25.45 103.11-25.48 103.69-25.5 103.89-25.5L103.89-25.5 103.84-24.4Q103.79-23.85 103.49-23.55 103.19-23.25 102.69-23.25L102.69-23.25 91.94-23.25Q91.44-23.25 90.44-23.23 89.44-23.2 88.94-23.1ZM117.64 11.65L117.64 11.65Q115.49 11.65 113.54 11.13 111.59 10.6 110.34 9.43 109.09 8.25 109.09 6.25L109.09 6.25Q109.09 4.85 109.91 3.9 110.74 2.95 112.09 2.95L112.09 2.95Q113.44 2.95 114.04 3.7L114.04 3.7Q113.29 4.15 113.04 4.85 112.79 5.55 112.79 6.05L112.79 6.05Q112.79 7.45 113.51 8.3 114.24 9.15 115.34 9.55 116.44 9.95 117.64 9.95L117.64 9.95Q121.79 9.95 123.71 6.8 125.64 3.65 125.64-2.4L125.64-2.4Q125.64-3.25 125.69-4.38 125.74-5.5 125.84-6.63 125.94-7.75 125.99-8.75L125.99-8.75 126.54-9.55Q126.04-4.95 123.66-2.25 121.29 0.45 117.14 0.45L117.14 0.45Q113.39 0.45 111.49-1.93 109.59-4.3 109.54-10.05L109.54-10.05 109.54-19.75Q109.54-21.15 109.41-22.58 109.29-24 108.89-25.15L108.89-25.15Q109.34-25.45 109.86-25.75 110.39-26.05 111.24-26.05L111.24-26.05Q112.24-26.05 112.86-25.48 113.49-24.9 113.49-23.8L113.49-23.8 113.54-10.55Q113.54-6 114.59-3.9 115.64-1.8 118.19-1.8L118.19-1.8Q119.59-1.8 120.86-2.45 122.14-3.1 123.19-4.5 124.24-5.9 124.84-8.18 125.44-10.45 125.44-13.7L125.44-13.7Q125.44-16.65 125.41-18.55 125.39-20.45 125.34-21.65 125.29-22.85 125.14-23.65 124.99-24.45 124.74-25.15L124.74-25.15Q125.04-25.4 125.61-25.73 126.19-26.05 127.04-26.05L127.04-26.05Q128.04-26.05 128.69-25.43 129.34-24.8 129.34-23.65L129.34-23.65 129.39-2.45Q129.39 2.8 127.86 5.9 126.34 9 123.69 10.33 121.04 11.65 117.64 11.65Z" opacity="1" transform="matrix(1,0,0,1,0,0)" fill="#00ddb3" class="wordmark-text-0" data-fill-palette-color="primary" id="text-0"></path></svg></g></svg></g></svg></g></svg></g><g></g></svg></g><defs></defs></svg><rect width="395.52" height="153.60306220095694" fill="none" stroke="none" visibility="hidden"></rect></g></svg></g></svg>